<svg width="42" height="37" viewBox="0 0 42 37" fill="none" xmlns="http://www.w3.org/2000/svg">
<path d="M21.8055 8.56841C21.7119 8.88175 21.8906 9.21081 22.2037 9.3041L22.2961 9.33165L22.3022 9.32462C22.5841 9.35891 22.8567 9.18573 22.9398 8.90574C23.6397 6.55582 25.8454 4.91367 28.3025 4.91367C28.6292 4.91367 28.8944 4.6489 28.8944 4.32217C28.8944 3.99544 28.6292 3.73068 28.3025 3.73068C25.2236 3.73068 22.6363 5.77897 21.8055 8.56841ZM21.8055 8.56841L21.9492 8.61132M21.8055 8.56841C21.8055 8.56844 21.8054 8.56847 21.8054 8.5685L21.9492 8.61132M21.9492 8.61132C21.8794 8.845 22.0126 9.09065 22.2465 9.16035L21.9492 8.61132Z" fill="#494949" stroke="#F9FFF9" stroke-width="0.3"/>
<path d="M34.4886 25.9555H31.8375C31.5935 25.9555 31.3956 25.7577 31.3956 25.514C31.3956 25.2702 31.5935 25.0725 31.8375 25.0725H34.4886C38.143 25.0725 41.1164 22.1015 41.1164 18.4501C41.1164 14.7986 38.143 11.8277 34.4886 11.8277H34.4248C34.2967 11.8277 34.1749 11.7722 34.0909 11.6754C34.007 11.5786 33.9691 11.4502 33.9874 11.3234C34.0269 11.0485 34.0467 10.7722 34.0467 10.5032C34.0467 7.33866 31.4697 4.76377 28.3026 4.76377C27.0704 4.76377 25.8954 5.1485 24.9043 5.87664C24.6866 6.03652 24.3773 5.96557 24.2513 5.72621C21.4446 0.386056 14.1138 -0.331072 10.3131 4.3144C8.71201 6.27146 8.08292 8.8173 8.58701 11.2985C8.64256 11.5726 8.43268 11.828 8.15399 11.828H7.97693C4.32249 11.828 1.34909 14.799 1.34909 18.4504C1.34909 22.1019 4.32249 25.0728 7.97693 25.0728H10.628C10.872 25.0728 11.0699 25.2705 11.0699 25.5143C11.0699 25.7581 10.872 25.9558 10.628 25.9558H7.97693C3.83513 25.9558 0.465332 22.5888 0.465332 18.4504C0.465332 14.4281 3.64857 11.1345 7.63007 10.9529C7.25607 8.37862 7.97125 5.78201 9.62882 3.7556C13.698 -1.21844 21.4963 -0.66092 24.7928 4.8855C25.8444 4.22672 27.0478 3.88113 28.3024 3.88113C32.1396 3.88113 35.1803 7.14442 34.9142 10.957C38.859 11.1781 42 14.4542 42 18.4501C42 22.5888 38.6302 25.9555 34.4884 25.9555L34.4886 25.9555Z" fill="#494949"/>
<path d="M9.97695 25.2647C9.97695 31.4338 14.9997 36.4522 21.1735 36.4522C27.3473 36.4522 32.37 31.4337 32.37 25.2647C32.37 19.0956 27.3473 14.0772 21.1735 14.0772C14.9997 14.0772 9.97695 19.0957 9.97695 25.2647ZM11.1609 25.2647C11.1609 19.7487 15.6526 15.2604 21.1735 15.2604C26.6944 15.2604 31.1861 19.7486 31.1861 25.2647C31.1861 30.7807 26.6944 35.269 21.1735 35.269C15.6526 35.269 11.1609 30.7808 11.1609 25.2647Z" fill="#494949" stroke="#F9FFF9" stroke-width="0.3"/>
<path d="M19 23.5L21.5 21M21.5 21L24 23.5M21.5 21V30" stroke="#494949" stroke-linecap="round" stroke-linejoin="round"/>
</svg>
