<svg width="154" height="17" viewBox="0 0 154 17" fill="none" xmlns="http://www.w3.org/2000/svg">
<path d="M5.376 16V0.987999H7.368V16H5.376ZM0.78 2.332V0.663999H11.964V2.332H0.78ZM16.554 16H14.562V0.663999H16.554V16ZM25.818 16H23.826V0.663999H25.818V16ZM15.702 7.252H24.618V8.932H15.702V7.252ZM29.4448 16V0.663999H31.4128V16H29.4448ZM30.0328 16V14.332H39.0088V16H30.0328ZM30.5728 9.004V7.348H38.7568V9.004H30.5728ZM30.0208 2.332V0.663999H38.9368V2.332H30.0208ZM48.4258 16V14.356H53.2498C54.2898 14.356 55.0258 14.136 55.4578 13.696C55.8978 13.248 56.1178 12.632 56.1178 11.848V11.416C56.1178 10.616 55.8938 9.996 55.4458 9.556C55.0058 9.116 54.2338 8.896 53.1298 8.896H48.4378V7.324H53.1058C54.0898 7.324 54.7898 7.112 55.2058 6.688C55.6298 6.256 55.8418 5.66 55.8418 4.9V4.684C55.8418 3.932 55.6378 3.348 55.2298 2.932C54.8298 2.508 54.1178 2.296 53.0938 2.296H48.3898V0.663999H53.2738C54.9058 0.663999 56.0738 0.987999 56.7778 1.636C57.4818 2.284 57.8338 3.196 57.8338 4.372V4.612C57.8338 5.548 57.6098 6.284 57.1618 6.82C56.7138 7.356 56.0178 7.676 55.0738 7.78L55.0618 7.852C56.1418 8.012 56.9258 8.388 57.4138 8.98C57.9018 9.572 58.1458 10.396 58.1458 11.452V11.944C58.1458 13.216 57.7778 14.212 57.0418 14.932C56.3058 15.644 55.1058 16 53.4418 16H48.4258ZM47.0698 16V0.663999H49.0378V16H47.0698ZM60.0431 16V14.104L63.8711 10.348C64.5911 9.636 65.2031 8.996 65.7071 8.428C66.2191 7.86 66.6111 7.304 66.8831 6.76C67.1551 6.216 67.2911 5.636 67.2911 5.02V4.9C67.2911 4.316 67.1791 3.816 66.9551 3.4C66.7311 2.984 66.3911 2.668 65.9351 2.452C65.4791 2.236 64.8911 2.128 64.1711 2.128C63.3711 2.128 62.6271 2.256 61.9391 2.512C61.2511 2.768 60.6391 3.064 60.1031 3.4L60.2951 1.6C60.5991 1.408 60.9591 1.22 61.3751 1.036C61.7911 0.851999 62.2631 0.699999 62.7911 0.579999C63.3191 0.459999 63.9071 0.399999 64.5551 0.399999C66.1391 0.399999 67.3271 0.767999 68.1191 1.504C68.9111 2.24 69.3071 3.292 69.3071 4.66V4.828C69.3071 5.636 69.1631 6.368 68.8751 7.024C68.5871 7.68 68.1671 8.336 67.6151 8.992C67.0631 9.64 66.3991 10.348 65.6231 11.116L62.5031 14.2V14.668L61.6871 14.308H69.5471V16H60.0431ZM73.6446 16V14.356H78.4686C79.5086 14.356 80.2446 14.136 80.6766 13.696C81.1166 13.248 81.3366 12.632 81.3366 11.848V11.416C81.3366 10.616 81.1126 9.996 80.6646 9.556C80.2246 9.116 79.4526 8.896 78.3486 8.896H73.6566V7.324H78.3246C79.3086 7.324 80.0086 7.112 80.4246 6.688C80.8486 6.256 81.0606 5.66 81.0606 4.9V4.684C81.0606 3.932 80.8566 3.348 80.4486 2.932C80.0486 2.508 79.3366 2.296 78.3126 2.296H73.6086V0.663999H78.4926C80.1246 0.663999 81.2926 0.987999 81.9966 1.636C82.7006 2.284 83.0526 3.196 83.0526 4.372V4.612C83.0526 5.548 82.8286 6.284 82.3806 6.82C81.9326 7.356 81.2366 7.676 80.2926 7.78L80.2806 7.852C81.3606 8.012 82.1446 8.388 82.6326 8.98C83.1206 9.572 83.3646 10.396 83.3646 11.452V11.944C83.3646 13.216 82.9966 14.212 82.2606 14.932C81.5246 15.644 80.3246 16 78.6606 16H73.6446ZM72.2886 16V0.663999H74.2566V16H72.2886ZM95.5684 16.276C94.8324 16.276 94.1564 16.216 93.5404 16.096C92.9324 15.976 92.3884 15.828 91.9084 15.652C91.4284 15.476 91.0284 15.3 90.7084 15.124L90.5044 13.144C91.1204 13.512 91.8444 13.836 92.6764 14.116C93.5164 14.388 94.4284 14.524 95.4124 14.524C96.5964 14.524 97.4724 14.316 98.0404 13.9C98.6084 13.476 98.8924 12.844 98.8924 12.004V11.812C98.8924 11.26 98.7804 10.808 98.5564 10.456C98.3324 10.104 97.9524 9.808 97.4164 9.568C96.8884 9.328 96.1684 9.104 95.2564 8.896C94.1044 8.624 93.1804 8.304 92.4844 7.936C91.7964 7.56 91.2964 7.092 90.9844 6.532C90.6804 5.972 90.5284 5.276 90.5284 4.444V4.336C90.5284 3.08 90.9404 2.112 91.7644 1.432C92.5884 0.743999 93.8364 0.399999 95.5084 0.399999C96.6044 0.399999 97.5364 0.511999 98.3044 0.735999C99.0804 0.959999 99.7124 1.208 100.2 1.48L100.38 3.304C99.8124 2.968 99.1484 2.684 98.3884 2.452C97.6364 2.212 96.7724 2.092 95.7964 2.092C95.0204 2.092 94.3924 2.184 93.9124 2.368C93.4324 2.552 93.0844 2.816 92.8684 3.16C92.6524 3.504 92.5444 3.92 92.5444 4.408V4.456C92.5444 4.952 92.6484 5.376 92.8564 5.728C93.0724 6.08 93.4444 6.384 93.9724 6.64C94.5084 6.896 95.2684 7.144 96.2524 7.384C97.3804 7.648 98.2844 7.952 98.9644 8.296C99.6444 8.64 100.136 9.088 100.44 9.64C100.752 10.192 100.908 10.912 100.908 11.8V12.052C100.908 13.436 100.46 14.488 99.5644 15.208C98.6764 15.92 97.3444 16.276 95.5684 16.276ZM106.931 16V0.987999H108.923V16H106.931ZM102.335 2.332V0.663999H113.519V2.332H102.335ZM120.824 16.288C118.888 16.288 117.416 15.756 116.408 14.692C115.4 13.62 114.896 12.088 114.896 10.096V6.556C114.896 4.572 115.4 3.048 116.408 1.984C117.416 0.911999 118.888 0.375999 120.824 0.375999C122.76 0.375999 124.232 0.911999 125.24 1.984C126.248 3.048 126.752 4.572 126.752 6.556V10.096C126.752 12.088 126.248 13.62 125.24 14.692C124.232 15.756 122.76 16.288 120.824 16.288ZM120.824 14.62C122.12 14.62 123.096 14.236 123.752 13.468C124.408 12.692 124.736 11.596 124.736 10.18V6.472C124.736 5.056 124.408 3.964 123.752 3.196C123.096 2.428 122.12 2.044 120.824 2.044C119.536 2.044 118.564 2.428 117.908 3.196C117.252 3.964 116.924 5.056 116.924 6.472V10.18C116.924 11.596 117.252 12.692 117.908 13.468C118.564 14.236 119.536 14.62 120.824 14.62ZM138.768 16L138.336 12.856C138.256 12.264 138.12 11.752 137.928 11.32C137.736 10.88 137.44 10.536 137.04 10.288C136.648 10.04 136.088 9.916 135.36 9.916L131.196 9.904V8.332L135.648 8.32C136.696 8.32 137.444 8.064 137.892 7.552C138.34 7.032 138.564 6.328 138.564 5.44V5.08C138.564 4.2 138.336 3.52 137.88 3.04C137.424 2.552 136.664 2.308 135.6 2.308H131.136V0.663999H135.864C137.512 0.663999 138.708 1.028 139.452 1.756C140.204 2.476 140.58 3.472 140.58 4.744V5.152C140.58 6.152 140.344 6.972 139.872 7.612C139.4 8.244 138.616 8.628 137.52 8.764V9.004L136.668 8.704C137.556 8.768 138.24 8.964 138.72 9.292C139.208 9.612 139.564 10.052 139.788 10.612C140.012 11.172 140.184 11.844 140.304 12.628L140.82 16H138.768ZM129.828 16V0.663999H131.784V8.86L131.796 9.616V16H129.828ZM143.632 16V0.663999H145.6V16H143.632ZM144.22 16V14.332H153.196V16H144.22ZM144.76 9.004V7.348H152.944V9.004H144.76ZM144.208 2.332V0.663999H153.124V2.332H144.208Z" fill="#212121"/>
</svg>
